<svg width="17" height="19" viewBox="0 0 17 19" fill="none" xmlns="http://www.w3.org/2000/svg">
<g clip-path="url(#clip0)">
<path d="M1.73415 17.2715H15.3244C15.4625 17.2715 15.5834 17.2536 15.6179 17.0929C15.6352 16.9678 15.6007 16.8071 15.6007 16.6821C15.5834 16.2713 15.5489 15.8426 15.5316 15.4318L15.3244 11.6811C15.2726 10.5381 15.2035 9.41287 15.1517 8.2698C15.1344 8.03761 15.1517 7.76971 15.1172 7.53752C15.0999 7.48394 15.0999 7.44822 15.0654 7.4125C14.9445 7.26961 14.5991 7.34105 14.4437 7.34105H2.40762C2.28674 7.34105 2.13132 7.34105 2.07952 7.48394C2.04498 7.57324 2.06225 7.73398 2.06225 7.82329C2.04498 8.21622 2.01044 8.60915 1.99317 9.00208L1.78595 12.7528C1.71688 13.8958 1.66507 15.0568 1.596 16.1998L1.5442 17.0036C1.5442 17.075 1.5442 17.1286 1.57873 17.1822C1.61327 17.2358 1.68234 17.2715 1.73415 17.2715ZM1.73415 18.0573C1.35424 18.0573 1.00887 17.8251 0.853459 17.4858C0.680775 17.0929 0.801654 16.5392 0.818922 16.1284C0.974338 13.4493 1.11249 10.7703 1.2679 8.09119C1.28517 7.69826 1.25063 7.26961 1.49239 6.94812C1.68234 6.68022 1.99317 6.55519 2.30401 6.53733C4.41075 6.48375 6.53477 6.53733 8.64151 6.53733C10.7137 6.53733 12.8032 6.48375 14.8927 6.53733C15.2208 6.55519 15.5143 6.68022 15.7043 6.96598C15.9288 7.30533 15.8942 7.76971 15.9115 8.14478C16.0669 10.8238 16.2051 13.5029 16.3605 16.182C16.3778 16.5928 16.4986 17.1107 16.3087 17.5037C16.136 17.843 15.8079 18.0395 15.4453 18.0395C13.5285 18.1109 11.5944 18.0395 9.66035 18.0395H2.18313C2.02771 18.0573 1.88956 18.0573 1.73415 18.0573Z" fill="black"/>
<path d="M5.01539 9.62717C4.85998 9.62717 4.30739 9.69861 4.25558 9.59145C4.22105 9.52001 4.25558 9.3414 4.25558 9.2521C4.25558 9.12707 4.25558 8.98419 4.27285 8.85917C4.29012 8.39479 4.32466 7.94828 4.35919 7.50177C4.4628 6.53731 4.61822 5.57284 4.87725 4.6441C5.25715 3.25098 5.84428 1.73284 6.96672 0.821956C7.76107 0.143258 8.79718 0.0182344 9.69513 0.58977C10.8176 1.30419 11.4392 2.69731 11.8537 3.92968C12.1645 4.87628 12.389 5.87647 12.5099 6.87666C12.5617 7.32317 12.6135 7.76968 12.648 8.21619C12.6653 8.44838 12.6826 8.68056 12.6826 8.91275C12.6826 9.03777 12.6826 9.14493 12.6998 9.26996C12.6998 9.3414 12.7344 9.57359 12.6998 9.62717C12.6308 9.71647 12.0782 9.64503 11.94 9.64503C11.94 7.84112 11.7328 6.01935 11.1629 4.30475C10.8176 3.26884 10.3341 2.09005 9.45337 1.41135C8.93532 1.01842 8.29639 0.929119 7.72653 1.26847C6.88038 1.76856 6.36233 2.82233 5.99969 3.73321C5.34349 5.35852 5.08447 7.19814 5.03266 9.00205C5.03266 9.19852 5.01539 9.41284 5.01539 9.62717Z" fill="black"/>
</g>
<defs>
<clipPath id="clip0">
<rect width="15.6279" height="17.8605" fill="white" transform="translate(0.767334 0.232574)"/>
</clipPath>
</defs>
</svg>
