<svg width="25" height="24" viewBox="0 0 25 24" fill="none" xmlns="http://www.w3.org/2000/svg">
<path d="M19.119 5.46063C18.2775 4.85962 17.433 4.73886 17.2766 4.72092C17.2068 4.70854 17.0002 4.67722 16.6955 4.67722C15.9071 4.67722 14.3769 4.89044 12.9303 6.30871C11.4842 4.89069 9.95355 4.67722 9.16508 4.67722C8.86041 4.67722 8.65351 4.70854 8.58403 4.72092C8.42765 4.73861 7.58285 4.85962 6.74159 5.46063C5.90462 6.05835 4.90698 7.25835 4.90698 9.58079C4.90698 13.8998 12.3695 19.0312 12.687 19.2477C12.7605 19.2978 12.8454 19.3228 12.9303 19.3228C13.0152 19.3228 13.1003 19.2978 13.1736 19.2477C13.4914 19.0315 20.9536 13.9 20.9536 9.58079C20.9536 7.25835 19.956 6.05835 19.119 5.46063ZM12.9303 7.57995C13.601 8.36943 14.4431 9.60505 14.4431 10.8331C14.4431 12.7493 12.9922 12.7713 12.9303 12.7713C12.8684 12.7713 11.4173 12.7493 11.4173 10.8331C11.4175 9.60505 12.2596 8.36917 12.9303 7.57995ZM16.4356 15.4674C14.9761 16.8604 13.4987 17.9548 12.9303 18.3618C12.3619 17.955 10.8845 16.8604 9.42504 15.4674C7.0349 13.1861 5.77174 11.1504 5.77174 9.58079C5.77174 5.90501 8.56711 5.59124 8.68433 5.57987C8.69898 5.57861 8.71591 5.57608 8.73031 5.5733C8.73182 5.57279 8.89527 5.54197 9.16508 5.54197C9.8237 5.54197 11.1078 5.72488 12.3391 6.94054C10.8719 8.62534 10.5528 9.97743 10.5528 10.8328C10.5528 12.8893 11.9749 13.6358 12.9306 13.6358C13.8863 13.6358 15.3081 12.8893 15.3081 10.8328C15.3081 9.97743 14.989 8.62534 13.5217 6.94029C14.753 5.72463 16.0372 5.54172 16.6955 5.54172C16.9648 5.54172 17.128 5.57254 17.1283 5.57254C17.1442 5.57583 17.1604 5.5781 17.1763 5.57962C17.1834 5.58037 17.9056 5.65642 18.6165 6.16421C19.5935 6.86197 20.0889 8.01145 20.0889 9.58054C20.0889 11.1504 18.8257 13.1861 16.4356 15.4674Z" fill="black"/>
</svg>
