<svg width="22" height="22" viewBox="0 0 22 22" fill="none" xmlns="http://www.w3.org/2000/svg">
<path d="M10.6045 1.88373C5.72199 1.88373 1.76733 5.83838 1.76733 10.7209C1.76733 15.6035 5.72199 19.5581 10.6045 19.5581C15.4871 19.5581 19.4418 15.6035 19.4418 10.7209C19.4418 5.83838 15.4871 1.88373 10.6045 1.88373ZM6.67199 17.1279C6.78245 15.007 8.57199 13.1733 10.6045 13.1733C12.6371 13.1733 14.4045 14.9849 14.5371 17.1279C13.3883 17.8349 12.0406 18.2326 10.6045 18.2326C9.1685 18.2326 7.82082 17.8349 6.67199 17.1279ZM10.6045 11.0523C9.65454 11.0523 8.88129 10.2791 8.88129 9.32908C8.88129 8.37908 9.65454 7.62791 10.6045 7.62791C11.5545 7.62791 12.3278 8.40117 12.3278 9.35117C12.3278 10.3012 11.5545 11.0523 10.6045 11.0523ZM15.7522 16.2C15.3325 14.2337 13.8522 12.5988 11.9964 12.0465C12.9685 11.5384 13.6534 10.5221 13.6534 9.35117C13.6534 7.6721 12.2836 6.30233 10.6045 6.30233C8.92547 6.30233 7.55571 7.6721 7.55571 9.35117C7.55571 10.5221 8.2185 11.5384 9.21268 12.0465C7.35687 12.5988 5.87664 14.2116 5.45687 16.2C3.99873 14.8302 3.09292 12.8861 3.09292 10.7209C3.09292 6.58954 6.47315 3.20931 10.6045 3.20931C14.7359 3.20931 18.1162 6.58954 18.1162 10.7209C18.1162 12.8861 17.2104 14.8302 15.7522 16.2Z" fill="black"/>
</svg>
