<svg width="16" height="16" viewBox="0 0 16 16" fill="none" xmlns="http://www.w3.org/2000/svg">
<g clip-path="url(#clip0)">
<path d="M13.2767 8.68537C13.018 8.35871 13.092 8.21337 13.2767 7.92137C13.28 7.91804 15.4153 4.96737 15.6353 3.96671L15.6367 3.96604C15.746 3.60137 15.6367 3.33337 15.108 3.33337H13.3587C12.9133 3.33337 12.708 3.56337 12.598 3.82071C12.598 3.82071 11.7073 5.95271 10.4473 7.33471C10.0407 7.73404 9.85267 7.86204 9.63067 7.86204C9.52133 7.86204 9.35133 7.73404 9.35133 7.36937V3.96604C9.35133 3.52871 9.22667 3.33337 8.858 3.33337H6.10733C5.828 3.33337 5.662 3.53737 5.662 3.72737C5.662 4.14204 6.292 4.23737 6.35733 5.40404V7.93537C6.35733 8.49004 6.25667 8.59204 6.03333 8.59204C5.43867 8.59204 3.99533 6.45137 3.14 4.00137C2.96733 3.52604 2.79867 3.33404 2.35 3.33404H0.6C0.100667 3.33404 0 3.56404 0 3.82137C0 4.27604 0.594666 6.53671 2.76533 9.52337C4.212 11.562 6.24933 12.6667 8.10267 12.6667C9.21667 12.6667 9.35267 12.4214 9.35267 11.9994C9.35267 10.0514 9.252 9.86737 9.81 9.86737C10.0687 9.86737 10.514 9.99537 11.554 10.9787C12.7427 12.1447 12.938 12.6667 13.6033 12.6667H15.3527C15.8513 12.6667 16.104 12.4214 15.9587 11.9374C15.626 10.9194 13.378 8.82537 13.2767 8.68537Z" fill="black"/>
</g>
<defs>
<clipPath id="clip0">
<rect width="16" height="16" fill="white"/>
</clipPath>
</defs>
</svg>
